<svg width="17" height="22" viewBox="0 0 17 22" fill="none" xmlns="http://www.w3.org/2000/svg">
<path fill-rule="evenodd" clip-rule="evenodd" d="M16.5008 11.1808C16.5008 10.6226 16.4488 10.0857 16.3524 9.57031H8.66406V12.616H13.0574C12.8681 13.6002 12.293 14.4341 11.4284 14.9924V16.9678H14.0667C15.6103 15.5971 16.5008 13.5786 16.5008 11.1808Z" fill="#4285F4"/>
<path fill-rule="evenodd" clip-rule="evenodd" d="M8.66206 18.8697C10.8661 18.8697 12.714 18.1647 14.0647 16.9622L11.4264 14.9866C10.6954 15.459 9.76038 15.7382 8.66206 15.7382C6.53599 15.7382 4.73626 14.3531 4.09426 12.4922H1.36719V14.5321C2.71032 17.1053 5.47095 18.8697 8.66206 18.8697Z" fill="#34A853"/>
<path fill-rule="evenodd" clip-rule="evenodd" d="M4.09547 12.4929C3.9322 12.0205 3.8395 11.5158 3.8395 10.9969C3.8395 10.478 3.93229 9.97339 4.09556 9.50098V7.46094H1.3683C0.796853 8.55814 0.499502 9.76911 0.500001 10.9969C0.500001 12.2674 0.815375 13.4699 1.3683 14.5329L4.09547 12.4929Z" fill="#FBBC05"/>
<path fill-rule="evenodd" clip-rule="evenodd" d="M8.66217 6.25648C9.86072 6.25648 10.9367 6.65374 11.7828 7.43401L14.1241 5.1757C12.7104 3.90518 10.8625 3.125 8.66217 3.125C5.47104 3.125 2.71041 4.88937 1.36719 7.46261L4.09435 9.50256C4.73635 7.64152 6.53599 6.25648 8.66217 6.25648Z" fill="#EA4335"/>
</svg>
