<svg width="16" height="19" viewBox="0 0 16 19" fill="none" xmlns="http://www.w3.org/2000/svg">
<path fill-rule="evenodd" clip-rule="evenodd" d="M0.307831 6.75731C0 7.4266 0 8.18802 0 9.71085V14.4668C0 16.5817 0 17.6391 0.657007 18.2961C1.26684 18.906 2.22167 18.9497 4.04689 18.9529C4.04688 18.9513 4.04688 18.9498 4.04688 18.9482V13.3403C4.04688 12.1686 4.99674 11.2188 6.16846 11.2188H9.5332C10.7049 11.2188 11.6548 12.1686 11.6548 13.3403V18.9482C11.6548 18.9498 11.6548 18.9513 11.6548 18.9529C13.4803 18.9497 14.4352 18.906 15.0451 18.2961C15.7021 17.6391 15.7021 16.5817 15.7021 14.4668V9.71085C15.7021 8.18802 15.7021 7.4266 15.3943 6.75731C15.0865 6.08802 14.5084 5.59249 13.3521 4.60145L12.2306 3.64009C10.1407 1.84878 9.09577 0.953125 7.85107 0.953125C6.60637 0.953125 5.56144 1.84878 3.47158 3.64009L3.47158 3.64009L2.35 4.60145C1.19377 5.59249 0.615662 6.08802 0.307831 6.75731ZM9.65479 18.9531C9.65479 18.9515 9.65478 18.9499 9.65478 18.9482V13.3403C9.65478 13.2732 9.60035 13.2188 9.5332 13.2188H6.16846C6.10131 13.2188 6.04688 13.2732 6.04688 13.3403V18.9482C6.04688 18.9499 6.04687 18.9515 6.04686 18.9531H9.65479Z" fill="#AEAEAE"/>
</svg>
