<svg width="20" height="15" viewBox="0 0 20 15" fill="none" xmlns="http://www.w3.org/2000/svg">
<path d="M2.7691 14.7857H17.2225C18.1399 14.7857 18.8321 14.5619 19.2993 14.1144C19.7664 13.6669 20 13.0038 20 12.1251V7.54871C20 7.24853 19.9803 6.99475 19.9409 6.78735C19.9071 6.57996 19.848 6.39439 19.7636 6.23066C19.6848 6.06693 19.5751 5.89228 19.4344 5.70671L16.6568 2.11277C16.3304 1.68707 16.0349 1.3596 15.7704 1.13037C15.5058 0.895688 15.2104 0.731955 14.8839 0.639173C14.5575 0.546391 14.141 0.5 13.6344 0.5H6.36555C5.85338 0.5 5.43408 0.546391 5.10764 0.639173C4.78683 0.731955 4.49416 0.895688 4.22963 1.13037C3.9651 1.3596 3.66962 1.68707 3.34318 2.11277L0.565639 5.70671C0.424933 5.89228 0.312368 6.06693 0.227944 6.23066C0.14352 6.39439 0.0844238 6.57996 0.0506543 6.78735C0.0168848 6.99475 0 7.24853 0 7.54871V12.1251C0 13.0038 0.233573 13.6669 0.700718 14.1144C1.16786 14.5619 1.85732 14.7857 2.7691 14.7857ZM9.99578 9.77548C9.57366 9.77548 9.20501 9.67997 8.88983 9.48895C8.58027 9.29247 8.34107 9.04141 8.17222 8.73578C8.00338 8.42468 7.91895 8.09722 7.91895 7.75338V7.69607C7.91895 7.51051 7.85986 7.34404 7.74166 7.19668C7.62347 7.04387 7.44337 6.96746 7.20135 6.96746H2.09371C1.94175 6.96746 1.84888 6.91834 1.81511 6.8201C1.78134 6.72186 1.80386 6.62089 1.88265 6.51719L4.95568 2.50573C5.14141 2.26559 5.34684 2.0964 5.57197 1.99816C5.80273 1.89446 6.05882 1.84261 6.34023 1.84261H13.6513C13.944 1.84261 14.2029 1.89446 14.428 1.99816C14.6532 2.0964 14.8558 2.26559 15.0359 2.50573L18.1173 6.51719C18.1849 6.62089 18.2018 6.72186 18.168 6.8201C18.1399 6.91834 18.0498 6.96746 17.8978 6.96746H12.7986C12.5566 6.96746 12.3765 7.04387 12.2583 7.19668C12.1458 7.34404 12.0895 7.51051 12.0895 7.69607V7.75338C12.0895 8.09722 12.0023 8.42468 11.8278 8.73578C11.6589 9.04141 11.4169 9.29247 11.1017 9.48895C10.7922 9.67997 10.4235 9.77548 9.99578 9.77548Z" fill="#919EAB"/>
</svg>
