<svg width="18" height="19" viewBox="0 0 18 19" fill="none" xmlns="http://www.w3.org/2000/svg">
<path d="M10.7381 18.5C11.0667 18.5 11.3472 18.3754 11.5795 18.1261C11.8118 17.8824 12.0072 17.5567 12.1659 17.1487L17.7664 2.48867C17.8401 2.29603 17.8967 2.11756 17.9364 1.95326C17.9761 1.78895 17.9959 1.63314 17.9959 1.48584C17.9959 1.18555 17.9081 0.947592 17.7324 0.771955C17.5568 0.590652 17.3188 0.5 17.0186 0.5C16.8769 0.5 16.7211 0.522663 16.5511 0.567989C16.3812 0.607649 16.1999 0.661473 16.0072 0.729462L1.29618 6.36402C0.927907 6.50567 0.619125 6.69263 0.369834 6.92493C0.126208 7.15722 0.00439453 7.43768 0.00439453 7.76629C0.00439453 8.16856 0.140372 8.46601 0.412326 8.65864C0.684281 8.84561 1.02706 9.00142 1.44065 9.12606L5.85142 10.4773C6.14604 10.568 6.3925 10.6048 6.5908 10.5878C6.7891 10.5652 6.99306 10.4575 7.20269 10.2649L16.6616 1.49433C16.7183 1.44334 16.7778 1.41785 16.8401 1.41785C16.9081 1.41785 16.9676 1.44051 17.0186 1.48584C17.0639 1.53116 17.0865 1.58782 17.0865 1.65581C17.0865 1.71813 17.0582 1.77762 17.0016 1.83428L8.26502 11.3187C8.08371 11.5113 7.9789 11.7096 7.95057 11.9136C7.92791 12.1176 7.95907 12.3697 8.04405 12.67L9.35283 16.9873C9.48315 17.4235 9.64462 17.7833 9.83725 18.0666C10.0299 18.3555 10.3302 18.5 10.7381 18.5Z" fill="#AEAEAE"/>
</svg>
